<svg width="32" height="32" viewBox="0 0 32 32" fill="none" xmlns="http://www.w3.org/2000/svg">
<rect width="32" height="32" rx="16" fill="#7E6E62" fill-opacity="0.8"/>
<path d="M18.625 15.25C18.625 16.6997 17.4497 17.875 16 17.875C14.5503 17.875 13.375 16.6997 13.375 15.25C13.375 13.8003 14.5503 12.625 16 12.625C17.4497 12.625 18.625 13.8003 18.625 15.25Z" stroke="#DCDCDC" stroke-width="1.5"/>
<path d="M16 8.5C19.6529 8.5 22.75 11.5247 22.75 15.1943C22.75 18.9224 19.6025 21.5385 16.6953 23.3175C16.4834 23.4371 16.2438 23.5 16 23.5C15.7562 23.5 15.5166 23.4371 15.3047 23.3175C12.4029 21.5212 9.25 18.9352 9.25 15.1943C9.25 11.5247 12.3471 8.5 16 8.5Z" stroke="#DCDCDC" stroke-width="1.5"/>
</svg>
